:SAMPLES-PER-SECOND 25
:FULLY-SPECIFIED
:DEGREES
615
root  8.85315 75.5051 -3.09328 172.973 -70.3868 -170.486
RightUpLeg  -16.0167 -12.7741 4.32105
RightLeg  22.2902 -12.7049 -5.87124
RightFoot  -10.2199 -0.0535437 -1.64375
RightToes  2.84633e-005 7.89722e-005 -0.000426369
Spine  2.3891 -0.386738 0.522226
Spine1  4.79604 -0.774436 1.56609
HEad  31.197 -7.1032 -0.967798
LeftShoulder1  -3.88251e-019 0 -3.92111e-022
LeftArm  -33.2603 -0.911923 -72.8681
LeftForeArm  18.0283 -1.55208 1.86512
LeftHand  -1.30082 -4.91808 14.8795
RightShoulder  7.45443e-017 -2.42657e-020 1.96277e-018
RightArm  -27.3651 -11.3232 70.1881
RightForeArm  23.486 2.39532 2.32284
RightHand  -1.53538 10.3602 -11.6525
LeftUpLeg  -8.94927 4.5707 1.9628
LeftLeg  17.7193 19.1944 6.857
LeftFoot  -11.8949 0.101764 6.24267
LeftToes  3.91355e-005 3.11907e-005 -4.10385e-006
616
root  8.73047 75.5278 -2.8891 175.307 -63.904 -172.882
RightUpLeg  -14.4838 -13.2113 4.14834
RightLeg  20.7233 -17.9095 -7.52471
RightFoot  -10.8081 -0.0609145 -2.61316
RightToes  2.84633e-005 7.89722e-005 -0.000426369
Spine  2.18926 -0.255589 0.750355
Spine1  4.39041 -0.524652 1.79777
HEad  31.2089 -6.73268 -1.91794
LeftShoulder1  -3.88251e-019 0 -3.92111e-022
LeftArm  -33.4061 -0.524882 -73.3333
LeftForeArm  18.5068 -1.58204 1.42727
LeftHand  -1.27482 -4.90438 14.6109
RightShoulder  7.45443e-017 -2.42657e-020 1.96277e-018
RightArm  -27.6086 -12.195 70.3371
RightForeArm  24.2474 1.91811 1.8779
RightHand  -1.49639 10.1417 -11.5201
LeftUpLeg  -8.11191 5.82027 1.50248
LeftLeg  18.3271 24.1158 8.6269
LeftFoot  -11.8612 0.0954257 5.29935
LeftToes  3.91355e-005 3.11907e-005 -4.10385e-006
617
root  8.57684 75.5084 -2.73243 177.371 -56.7497 -174.865
RightUpLeg  -13.3866 -11.4616 3.45802
RightLeg  18.6394 -21.5495 -7.66265
RightFoot  -9.97094 -0.0381698 -2.55295
RightToes  2.84633e-005 7.89722e-005 -0.000426369
Spine  1.83437 -0.197666 0.674995
Spine1  3.67605 -0.402281 1.41002
HEad  31.5136 -5.68297 -2.48377
LeftShoulder1  -3.88251e-019 0 -3.92111e-022
LeftArm  -33.1024 0.41716 -73.1088
LeftForeArm  19.1928 -0.726553 1.28319
LeftHand  -1.27914 -4.6697 14.9833
RightShoulder  7.45443e-017 -2.42657e-020 1.96277e-018
RightArm  -27.1891 -12.6101 70.6988
RightForeArm  25.2036 1.12807 2.78605
RightHand  -1.46805 9.63838 -11.6684
LeftUpLeg  -7.51139 7.2411 0.766747
LeftLeg  19.3479 29.5465 10.7961
LeftFoot  -11.7097 0.0818132 3.57973
LeftToes  3.91355e-005 3.11907e-005 -4.10385e-006
618
root  8.378 75.4879 -2.75021 178.524 -49.3579 -176.337
RightUpLeg  -12.0943 -7.52382 2.48716
RightLeg  16.1126 -21.0786 -5.71739
RightFoot  -7.92332 -0.00651434 -1.57375
RightToes  2.84633e-005 7.89722e-005 -0.000426369
Spine  1.63361 -0.0751569 0.473873
Spine1  3.27312 -0.149625 0.952736
HEad  31.8484 -4.72571 -2.86096
LeftShoulder1  -3.88251e-019 0 -3.92111e-022
LeftArm  -32.7639 0.804895 -73.2681
LeftForeArm  19.7344 1.09965 1.33845
LeftHand  -1.13695 -4.96897 13.0002
RightShoulder  7.45443e-017 -2.42657e-020 1.96277e-018
RightArm  -27.21 -12.6807 71.2607
RightForeArm  26.4663 1.11199 3.08759
RightHand  -1.44519 9.75477 -11.4123
LeftUpLeg  -6.02558 8.87009 0.269989
LeftLeg  19.8632 35.0741 12.4703
LeftFoot  -11.6069 0.0756452 2.34935
LeftToes  3.91355e-005 3.11907e-005 -4.10385e-006
619
root  8.20175 75.4448 -2.90489 178.666 -42.4553 -176.903
RightUpLeg  -11.3457 -5.16898 2.47776
RightLeg  14.62 -16.0328 -3.59186
RightFoot  -7.28421 0.017216 -1.84376
RightToes  2.84633e-005 7.89722e-005 -0.000426369
Spine  1.53913 -0.368994 0.487718
Spine1  3.07803 -0.73439 0.87736
HEad  32.1423 -3.37333 -3.49083
LeftShoulder1  -3.88251e-019 0 -3.92111e-022
LeftArm  -33.4329 1.51606 -73.6148
LeftForeArm  20.7374 2.17429 1.69193
LeftHand  -1.09975 -4.78401 12.8044
RightShoulder  7.45443e-017 -2.42657e-020 1.96277e-018
RightArm  -26.8352 -12.3767 71.7503
RightForeArm  27.8163 1.67013 3.73704
RightHand  -1.40316 9.88266 -11.0077
LeftUpLeg  -4.87355 12.2052 0.337168
LeftLeg  21.5208 38.1433 14.5625
LeftFoot  -11.792 0.0736713 0.886962
LeftToes  3.91355e-005 3.11907e-005 -4.10385e-006
620
root  8.0761 75.3726 -3.16563 178.227 -36.3103 -177.019
RightUpLeg  -10.8218 -2.70912 3.2619
RightLeg  14.6012 -12.7495 -3.07131
RightFoot  -6.84997 0.053063 -2.53504
RightToes  2.84633e-005 7.89722e-005 -0.000426369
Spine  1.59324 -0.801221 0.814146
Spine1  3.17413 -1.59712 1.30913
HEad  32.3893 -1.7474 -4.42959
LeftShoulder1  -3.88251e-019 0 -3.92111e-022
LeftArm  -33.5996 1.87275 -74.739
LeftForeArm  20.3897 2.21132 1.63947
LeftHand  -1.10631 -4.75228 12.9162
RightShoulder  7.45443e-017 -2.42657e-020 1.96277e-018
RightArm  -26.1147 -12.0431 71.676
RightForeArm  28.7856 2.43903 4.58767
RightHand  -1.57886 10.4019 -11.9342
LeftUpLeg  -4.28382 17.3129 0.960714
LeftLeg  24.5664 37.8772 17.2262
LeftFoot  -12.1607 0.0645015 -1.09697
LeftToes  3.91355e-005 3.11907e-005 -4.10385e-006
621
root  8.07879 75.3052 -3.51879 177.816 -31.8883 -177.045
RightUpLeg  -10.0746 -0.517576 4.11917
RightLeg  14.5094 -10.6688 -2.70484
RightFoot  -6.93255 0.0732134 -3.1186
RightToes  2.84633e-005 7.89722e-005 -0.000426369
Spine  1.56672 -1.49421 1.26706
Spine1  3.09655 -2.95691 1.70459
HEad  32.9671 -0.619607 -4.95267
LeftShoulder1  -3.88251e-019 0 -3.92111e-022
LeftArm  -33.4999 1.80172 -76.2004
LeftForeArm  21.3239 2.17517 1.78659
LeftHand  -1.09155 -4.84753 12.6364
RightShoulder  7.45443e-017 -2.42657e-020 1.96277e-018
RightArm  -25.7877 -12.541 71.5062
RightForeArm  28.9214 3.23611 5.64697
RightHand  -1.47862 10.6294 -11.0609
LeftUpLeg  -4.67152 21.0085 2.45504
LeftLeg  29.2254 34.6028 19.2388
LeftFoot  -11.915 0.0511489 -4.04454
LeftToes  3.91355e-005 3.11907e-005 -4.10385e-006
622
root  8.12789 75.1933 -3.92227 177.517 -28.0502 -177.245
RightUpLeg  -9.4842 1.65928 4.96402
RightLeg  15.0786 -9.01218 -2.77832
RightFoot  -7.46752 0.0709298 -3.59499
RightToes  2.84633e-005 7.89722e-005 -0.000426369
Spine  1.55669 -2.06166 1.68682
Spine1  3.04736 -4.02525 1.84963
HEad  33.1457 0.352514 -5.36093
LeftShoulder1  -3.88251e-019 0 -3.92111e-022
LeftArm  -33.5713 0.534932 -77.5341
LeftForeArm  23.8878 2.11125 2.1388
LeftHand  -1.03975 -4.67625 12.2506
RightShoulder  7.45443e-017 -2.42657e-020 1.96277e-018
RightArm  -25.4373 -13.6762 71.2373
RightForeArm  28.535 4.63534 6.6264
RightHand  -1.72637 11.1776 -12.4308
LeftUpLeg  -6.07493 23.2242 4.11627
LeftLeg  35.8913 29.1727 21.0376
LeftFoot  -10.5595 0.10524 -6.32218
LeftToes  3.91355e-005 3.11907e-005 -4.10385e-006
623
root  8.13746 75.0302 -4.27204 177.033 -24.302 -177.385
RightUpLeg  -8.97402 2.95817 5.68636
RightLeg  16.164 -6.8881 -2.56775
RightFoot  -8.36764 0.0609268 -4.52812
RightToes  2.84633e-005 7.89722e-005 -0.000426369
Spine  1.6332 -2.28871 2.11556
Spine1  3.1674 -4.36717 1.95052
HEad  32.8541 0.898249 -5.70613
LeftShoulder1  -3.88251e-019 0 -3.92111e-022
LeftArm  -33.7373 -1.30319 -78.7071
LeftForeArm  26.6531 2.06156 1.8995
LeftHand  -1.04186 -4.71476 12.2311
RightShoulder  7.45443e-017 -2.42657e-020 1.96277e-018
RightArm  -25.3467 -15.2997 70.8527
RightForeArm  28.4887 5.42412 7.5669
RightHand  -1.74326 11.1624 -12.5554
LeftUpLeg  -8.31851 22.7538 5.65848
LeftLeg  44.1002 22.8158 22.2336
LeftFoot  -7.20182 0.123259 -2.77921
LeftToes  3.91355e-005 3.11907e-005 -4.10385e-006
624
root  8.1168 74.8248 -4.50361 176.593 -20.6645 -176.945
RightUpLeg  -9.15235 3.90891 6.66443
RightLeg  17.7802 -4.57181 -1.99998
RightFoot  -9.19454 0.0402192 -5.45783
RightToes  2.84633e-005 7.89722e-005 -0.000426369
Spine  1.79298 -2.32723 2.74984
Spine1  3.44758 -4.33812 2.61427
HEad  32.3444 1.14976 -5.75581
LeftShoulder1  -3.88251e-019 0 -3.92111e-022
LeftArm  -33.4053 -2.5526 -80.752
LeftForeArm  27.077 2.06777 1.64154
LeftHand  -1.03997 -4.54012 12.4097
RightShoulder  7.45443e-017 -2.42657e-020 1.96277e-018
RightArm  -25.4182 -15.7493 70.4525
RightForeArm  27.9405 4.69616 7.27574
RightHand  -1.88131 11.199 -13.463
LeftUpLeg  -11.0714 19.9713 7.1524
LeftLeg  51.1133 15.8769 20.3748
LeftFoot  -3.9093 -0.190634 3.28655
LeftToes  3.91355e-005 3.11907e-005 -4.10385e-006
625
root  8.01018 74.7028 -4.71211 176.175 -17.1129 -176.996
RightUpLeg  -9.06231 4.72198 6.94187
RightLeg  19.3526 -2.22166 -1.2052
RightFoot  -10.028 -0.000359292 -5.86611
RightToes  2.84633e-005 7.89722e-005 -0.000426369
Spine  2.14226 -2.20571 3.26594
Spine1  4.1231 -4.00959 3.24237
HEad  31.8171 1.36417 -6.45305
LeftShoulder1  -3.88251e-019 0 -3.92111e-022
LeftArm  -33.3059 -3.84503 -83.332
LeftForeArm  25.7103 2.19009 0.965288
LeftHand  -0.921036 -4.89293 10.6764
RightShoulder  7.45443e-017 -2.42657e-020 1.96277e-018
RightArm  -25.9373 -15.1718 70.2532
RightForeArm  30.0827 2.65711 5.47238
RightHand  -1.87281 10.9639 -13.6075
LeftUpLeg  -12.4858 16.0122 7.42423
LeftLeg  53.7119 9.10976 13.4818
LeftFoot  -4.59312 -0.173445 3.3765
LeftToes  3.91355e-005 3.11907e-005 -4.10385e-006
626
root  7.79621 74.6896 -4.9257 175.857 -13.4029 -177.598
RightUpLeg  -8.57883 6.09184 6.47058
RightLeg  20.3553 -0.116026 -0.360827
RightFoot  -10.5114 -0.0265618 -6.11702
RightToes  2.84633e-005 7.89722e-005 -0.000426369
Spine  2.44795 -1.88723 3.37785
Spine1  4.74795 -3.35716 3.37464
HEad  31.8234 1.12644 -6.63356
LeftShoulder1  -3.88251e-019 0 -3.92111e-022
LeftArm  -32.2691 -5.13133 -85.8833
LeftForeArm  24.0722 1.87248 0.268596
LeftHand  -0.950028 -5.53403 10.389
RightShoulder  7.45443e-017 -2.42657e-020 1.96277e-018
RightArm  -26.7947 -13.9665 70.2493
RightForeArm  31.8143 -0.216597 2.63904
RightHand  -1.58243 10.3484 -12.0032
LeftUpLeg  -13.3453 12.6455 6.53224
LeftLeg  53.9405 7.21238 10.9824
LeftFoot  -7.23314 -0.0829574 3.52673
LeftToes  3.91355e-005 3.11907e-005 -4.10385e-006
627
root  7.55718 74.7522 -5.08614 175.863 -10.6836 -178.338
RightUpLeg  -8.21619 6.59475 5.51296
RightLeg  20.6518 2.21798 0.642781
RightFoot  -10.6671 -0.0364377 -6.03386
RightToes  2.84633e-005 7.89722e-005 -0.000426369
Spine  2.58138 -1.72484 3.3289
Spine1  5.05184 -3.11874 3.44268
HEad  31.9459 0.8252 -6.53281
LeftShoulder1  -3.88251e-019 0 -3.92111e-022
LeftArm  -31.2171 -6.33385 -88.1793
LeftForeArm  26.1772 0.230031 -0.313443
LeftHand  -1.15488 -5.40681 12.692
RightShoulder  7.45443e-017 -2.42657e-020 1.96277e-018
RightArm  -27.6208 -12.9543 70.0688
RightForeArm  33.031 -2.22292 0.68546
RightHand  -1.54587 10.0513 -11.9505
LeftUpLeg  -14.6701 8.22906 5.00685
LeftLeg  52.1964 9.63652 13.485
LeftFoot  -8.61038 -0.0158094 2.86064
LeftToes  3.91355e-005 3.11907e-005 -4.10385e-006
628
root  7.32302 74.8335 -5.19814 176.278 -8.13 -178.789
RightUpLeg  -8.07651 7.31488 4.82162
RightLeg  20.0712 4.11952 1.31037
RightFoot  -10.5213 -0.0278732 -6.02026
RightToes  2.84633e-005 7.89722e-005 -0.000426369
Spine  2.54378 -1.56644 3.40382
Spine1  5.01581 -2.94201 3.83709
HEad  31.6986 1.18165 -6.83458
LeftShoulder1  -3.88251e-019 0 -3.92111e-022
LeftArm  -30.1696 -7.44606 -89.9535
LeftForeArm  30.915 -0.370662 -1.64274
LeftHand  -0.957416 -5.74139 10.2752
RightShoulder  7.45443e-017 -2.42657e-020 1.96277e-018
RightArm  -27.7689 -13.0208 69.6539
RightForeArm  32.3675 -2.38393 0.117058
RightHand  -1.58588 10.1136 -12.2009
LeftUpLeg  -16.2589 3.50005 4.03807
LeftLeg  48.6259 11.6852 14.2576
LeftFoot  -9.37141 -0.00337305 3.50166
LeftToes  3.91355e-005 3.11907e-005 -4.10385e-006
629
root  7.06534 74.8493 -5.31757 176.775 -5.71574 -178.904
RightUpLeg  -8.0098 8.13021 4.48968
RightLeg  19.3153 5.51565 1.67493
RightFoot  -10.7846 -0.0449429 -5.70334
RightToes  2.84633e-005 7.89722e-005 -0.000426369
Spine  2.51986 -1.44746 3.43711
Spine1  5.00241 -2.84036 4.21259
HEad  31.0663 1.11665 -7.42323
LeftShoulder1  -3.88251e-019 0 -3.92111e-022
LeftArm  -29.2709 -8.31348 -90.8614
LeftForeArm  37.2151 -0.978036 -2.26771
LeftHand  -0.919719 -5.47478 10.1243
RightShoulder  7.45443e-017 -2.42657e-020 1.96277e-018
RightArm  -27.4537 -13.4239 69.2017
RightForeArm  31.0801 -1.56917 1.1934
RightHand  -1.597 10.1397 -12.2624
LeftUpLeg  -17.6451 -0.518936 3.82309
LeftLeg  43.4828 11.0663 11.4035
LeftFoot  -9.82616 0.00684082 3.8993
LeftToes  3.91355e-005 3.11907e-005 -4.10385e-006
